<svg width="50" height="45" viewBox="0 0 55 45" fill="none" xmlns="http://www.w3.org/2000/svg">
<path d="M22.2206 29.52C21.5166 33.232 20.2366 36.08 18.3806 38.064C16.5246 40.048 14.2206 41.04 11.4686 41.04C8.87657 41.04 6.55657 40.016 4.50857 37.968C2.46057 35.952 1.27657 33.536 0.956566 30.72C1.91657 29.888 2.98857 29.232 4.17257 28.752C5.35657 28.24 6.66857 27.888 8.10857 27.696C8.55657 30.608 8.98857 32.528 9.40457 33.456C9.85257 34.384 10.4286 34.848 11.1326 34.848C12.0926 34.848 12.7806 34.176 13.1966 32.832C13.6126 31.456 13.8206 29.296 13.8206 26.352C13.8206 23.024 13.6926 19.264 13.4366 15.072C13.1806 10.88 12.8286 7.056 12.3806 3.6C13.1166 3.088 14.0766 2.688 15.2606 2.4C16.4446 2.112 17.6766 1.968 18.9566 1.968C19.8526 1.968 20.6686 2.016 21.4046 2.112C22.1406 2.208 22.8766 2.352 23.6126 2.544C23.6446 3.536 23.6766 4.656 23.7086 5.904C23.7406 7.12 23.7566 8.416 23.7566 9.792C23.7566 14.08 23.6446 17.68 23.4206 20.592C23.1966 23.472 22.7966 26.448 22.2206 29.52Z" fill="#E6D5B8"/>
<path d="M48.4586 20.4C49.1946 21.424 49.7386 22.512 50.0906 23.664C50.4426 24.784 50.6186 26 50.6186 27.312C50.6186 30.608 49.4346 33.344 47.0666 35.52C44.6986 37.664 41.7866 38.736 38.3306 38.736C34.5226 38.736 31.3386 37.568 28.7786 35.232C26.2506 32.864 24.9866 30.064 24.9866 26.832C26.0106 26.32 27.2426 25.888 28.6826 25.536C30.1546 25.152 31.3706 24.96 32.3306 24.96C32.3306 27.392 32.7786 29.36 33.6746 30.864C34.6026 32.336 35.8506 33.072 37.4186 33.072C38.5386 33.072 39.4026 32.768 40.0106 32.16C40.6186 31.52 40.9226 30.656 40.9226 29.568C40.9226 28.64 40.6026 27.744 39.9626 26.88C39.3546 25.984 37.9786 24.72 35.8346 23.088C34.2346 21.872 33.0506 20.896 32.2826 20.16C31.5146 19.424 30.8586 18.704 30.3146 18C29.5466 16.912 28.9706 15.792 28.5866 14.64C28.2026 13.456 28.0106 12.192 28.0106 10.848C28.0106 7.648 29.1466 5.04 31.4186 3.024C33.7226 1.008 36.7306 0 40.4426 0C43.7386 0 46.3786 0.800001 48.3626 2.4C50.3786 3.968 51.7066 6.304 52.3466 9.408C51.4186 10.016 50.3626 10.496 49.1786 10.848C47.9946 11.168 46.4426 11.392 44.5226 11.52C44.2346 9.536 43.7546 8.112 43.0826 7.248C42.4106 6.384 41.4826 5.952 40.2986 5.952C39.5626 5.952 38.9706 6.192 38.5226 6.672C38.1066 7.12 37.8986 7.728 37.8986 8.496C37.8986 9.552 38.2186 10.56 38.8586 11.52C39.4986 12.48 40.9066 13.776 43.0826 15.408C44.6826 16.592 45.8506 17.536 46.5866 18.24C47.3226 18.944 47.9466 19.664 48.4586 20.4Z" fill="#1F6F8B"/>
</svg>
